<svg xmlns="http://www.w3.org/2000/svg" width="192" height="12" fill="#000"><rect x="0" y="2" width="5" height="8" rx="1"/><rect x="6" y="2" width="1.3" height="1.3"/><rect x="6" y="4" width="1.3" height="1.3"/><rect x="6" y="8" width="1.3" height="1.3"/><rect x="8" y="4" width="1.3" height="1.3"/><rect x="8" y="6" width="1.3" height="1.3"/><rect x="10" y="2" width="1.3" height="1.3"/><rect x="10" y="4" width="1.3" height="1.3"/><rect x="10" y="6" width="1.3" height="1.3"/><rect x="10" y="8" width="1.3" height="1.3"/><rect x="12" y="2" width="1.3" height="1.3"/><rect x="12" y="6" width="1.3" height="1.3"/><rect x="12" y="8" width="1.3" height="1.3"/><rect x="14" y="8" width="1.3" height="1.3"/><rect x="16" y="4" width="1.3" height="1.3"/><rect x="16" y="8" width="1.3" height="1.3"/><rect x="18" y="2" width="1.3" height="1.3"/><rect x="18" y="4" width="1.3" height="1.3"/><rect x="18" y="6" width="1.3" height="1.3"/><rect x="20" y="2" width="1.3" height="1.3"/><rect x="20" y="8" width="1.3" height="1.3"/><rect x="22" y="4" width="1.3" height="1.3"/><rect x="22" y="6" width="1.3" height="1.3"/><rect x="22" y="8" width="1.3" height="1.3"/><rect x="24" y="4" width="1.3" height="1.3"/><rect x="24" y="6" width="1.3" height="1.3"/><rect x="26" y="2" width="1.3" height="1.3"/><rect x="26" y="4" width="1.3" height="1.3"/><rect x="28" y="2" width="1.3" height="1.3"/><rect x="30" y="4" width="1.3" height="1.3"/><rect x="30" y="8" width="1.3" height="1.3"/><rect x="32" y="2" width="1.3" height="1.3"/><rect x="32" y="6" width="1.3" height="1.3"/><rect x="32" y="8" width="1.3" height="1.3"/><rect x="34" y="2" width="1.3" height="1.3"/><rect x="36" y="4" width="1.3" height="1.3"/><rect x="38" y="4" width="1.3" height="1.3"/><rect x="40" y="2" width="1.3" height="1.3"/><rect x="40" y="6" width="1.3" height="1.3"/><rect x="42" y="8" width="1.3" height="1.3"/><rect x="44" y="2" width="1.3" height="1.3"/><rect x="44" y="6" width="1.3" height="1.3"/><rect x="44" y="8" width="1.3" height="1.3"/><rect x="46" y="2" width="1.3" height="1.3"/><rect x="46" y="4" width="1.3" height="1.3"/><rect x="46" y="6" width="1.3" height="1.3"/><rect x="48" y="2" width="5" height="8" rx="1"/><rect x="54" y="2" width="1.3" height="1.3"/><rect x="54" y="4" width="1.3" height="1.3"/><rect x="54" y="6" width="1.3" height="1.3"/><rect x="56" y="2" width="1.3" height="1.3"/><rect x="56" y="4" width="1.3" height="1.3"/><rect x="58" y="6" width="1.3" height="1.3"/><rect x="58" y="8" width="1.3" height="1.3"/><rect x="60" y="2" width="1.3" height="1.3"/><rect x="60" y="8" width="1.3" height="1.3"/><rect x="62" y="2" width="1.3" height="1.3"/><rect x="62" y="4" width="1.3" height="1.3"/><rect x="62" y="6" width="1.3" height="1.3"/><rect x="62" y="8" width="1.3" height="1.3"/><rect x="64" y="4" width="1.3" height="1.3"/><rect x="64" y="6" width="1.3" height="1.3"/><rect x="64" y="8" width="1.3" height="1.3"/><rect x="66" y="2" width="1.3" height="1.3"/><rect x="68" y="8" width="1.3" height="1.3"/><rect x="72" y="2" width="1.3" height="1.3"/><rect x="72" y="4" width="1.3" height="1.3"/><rect x="72" y="6" width="1.3" height="1.3"/><rect x="74" y="2" width="1.3" height="1.3"/><rect x="74" y="4" width="1.3" height="1.3"/><rect x="74" y="6" width="1.3" height="1.3"/><rect x="74" y="8" width="1.3" height="1.3"/><rect x="76" y="2" width="1.3" height="1.3"/><rect x="76" y="4" width="1.3" height="1.3"/><rect x="76" y="6" width="1.3" height="1.3"/><rect x="76" y="8" width="1.3" height="1.3"/><rect x="78" y="2" width="1.3" height="1.3"/><rect x="78" y="4" width="1.3" height="1.3"/><rect x="78" y="6" width="1.3" height="1.3"/><rect x="80" y="4" width="1.3" height="1.3"/><rect x="80" y="6" width="1.3" height="1.3"/><rect x="80" y="8" width="1.3" height="1.3"/><rect x="82" y="2" width="1.3" height="1.3"/><rect x="82" y="4" width="1.3" height="1.3"/><rect x="84" y="2" width="1.3" height="1.3"/><rect x="84" y="4" width="1.3" height="1.3"/><rect x="84" y="6" width="1.3" height="1.3"/><rect x="84" y="8" width="1.3" height="1.3"/><rect x="86" y="2" width="1.3" height="1.3"/><rect x="86" y="4" width="1.3" height="1.3"/><rect x="86" y="8" width="1.3" height="1.3"/><rect x="88" y="2" width="1.3" height="1.3"/><rect x="88" y="8" width="1.3" height="1.3"/><rect x="90" y="4" width="1.3" height="1.3"/><rect x="92" y="6" width="1.3" height="1.3"/><rect x="92" y="8" width="1.3" height="1.3"/><rect x="94" y="2" width="1.3" height="1.3"/><rect x="96" y="2" width="5" height="8" rx="1"/><rect x="102" y="2" width="1.3" height="1.3"/><rect x="102" y="4" width="1.3" height="1.3"/><rect x="106" y="2" width="1.3" height="1.3"/><rect x="106" y="6" width="1.3" height="1.3"/><rect x="106" y="8" width="1.3" height="1.3"/><rect x="108" y="2" width="1.3" height="1.3"/><rect x="108" y="4" width="1.3" height="1.3"/><rect x="108" y="6" width="1.3" height="1.3"/><rect x="110" y="4" width="1.3" height="1.3"/><rect x="112" y="4" width="1.3" height="1.3"/><rect x="112" y="6" width="1.3" height="1.3"/><rect x="112" y="8" width="1.3" height="1.3"/><rect x="114" y="2" width="1.3" height="1.3"/><rect x="114" y="4" width="1.3" height="1.3"/><rect x="116" y="4" width="1.3" height="1.3"/><rect x="118" y="2" width="1.3" height="1.3"/><rect x="120" y="4" width="1.3" height="1.3"/><rect x="120" y="6" width="1.3" height="1.3"/><rect x="122" y="2" width="1.3" height="1.3"/><rect x="122" y="8" width="1.3" height="1.3"/><rect x="124" y="2" width="1.3" height="1.3"/><rect x="124" y="8" width="1.3" height="1.3"/><rect x="126" y="2" width="1.3" height="1.3"/><rect x="126" y="4" width="1.3" height="1.3"/><rect x="128" y="2" width="1.3" height="1.3"/><rect x="130" y="2" width="1.3" height="1.3"/><rect x="130" y="6" width="1.3" height="1.3"/><rect x="130" y="8" width="1.3" height="1.3"/><rect x="134" y="2" width="1.3" height="1.3"/><rect x="134" y="8" width="1.3" height="1.3"/><rect x="136" y="2" width="1.3" height="1.3"/><rect x="136" y="4" width="1.3" height="1.3"/><rect x="136" y="6" width="1.3" height="1.3"/><rect x="138" y="2" width="1.3" height="1.3"/><rect x="138" y="4" width="1.3" height="1.3"/><rect x="138" y="6" width="1.3" height="1.3"/><rect x="140" y="2" width="1.3" height="1.3"/><rect x="140" y="4" width="1.3" height="1.3"/><rect x="142" y="2" width="1.3" height="1.3"/><rect x="144" y="2" width="5" height="8" rx="1"/><rect x="150" y="4" width="1.3" height="1.3"/><rect x="150" y="6" width="1.3" height="1.3"/><rect x="150" y="8" width="1.3" height="1.3"/><rect x="152" y="2" width="1.3" height="1.3"/><rect x="152" y="6" width="1.3" height="1.3"/><rect x="152" y="8" width="1.3" height="1.3"/><rect x="154" y="6" width="1.3" height="1.3"/><rect x="156" y="6" width="1.3" height="1.3"/><rect x="158" y="2" width="1.3" height="1.3"/><rect x="158" y="4" width="1.3" height="1.3"/><rect x="160" y="8" width="1.3" height="1.3"/><rect x="164" y="2" width="1.3" height="1.3"/><rect x="164" y="6" width="1.3" height="1.3"/><rect x="166" y="8" width="1.3" height="1.3"/><rect x="168" y="8" width="1.3" height="1.3"/><rect x="170" y="2" width="1.3" height="1.3"/><rect x="170" y="4" width="1.3" height="1.3"/><rect x="170" y="6" width="1.3" height="1.3"/><rect x="170" y="8" width="1.3" height="1.3"/><rect x="172" y="2" width="1.3" height="1.3"/><rect x="174" y="2" width="1.3" height="1.3"/><rect x="174" y="8" width="1.3" height="1.3"/><rect x="176" y="6" width="1.3" height="1.3"/><rect x="178" y="2" width="1.3" height="1.3"/><rect x="178" y="4" width="1.3" height="1.3"/><rect x="180" y="2" width="1.3" height="1.3"/><rect x="180" y="4" width="1.3" height="1.3"/><rect x="180" y="8" width="1.3" height="1.3"/><rect x="182" y="2" width="1.3" height="1.3"/><rect x="182" y="4" width="1.3" height="1.3"/><rect x="182" y="8" width="1.3" height="1.3"/><rect x="184" y="4" width="1.3" height="1.3"/><rect x="184" y="6" width="1.3" height="1.3"/><rect x="184" y="8" width="1.3" height="1.3"/><rect x="186" y="6" width="1.3" height="1.3"/><rect x="188" y="6" width="1.3" height="1.3"/><rect x="188" y="8" width="1.3" height="1.3"/><rect x="190" y="2" width="1.3" height="1.3"/><rect x="190" y="6" width="1.3" height="1.3"/><rect x="190" y="8" width="1.3" height="1.3"/></svg>